<?xml version="1.0" encoding="UTF-8" standalone="no"?>
<!DOCTYPE svg PUBLIC "-//W3C//DTD SVG 1.1//EN" "http://www.w3.org/Graphics/SVG/1.1/DTD/svg11.dtd">
<!-- Generated by graphviz version 2.40.1 (20161225.0304)
 -->
<!-- Title: G Pages: 1 -->
<svg width="1061pt" height="165pt" viewBox="0.00 0.00 1061.42 165.00" xmlns="http://www.w3.org/2000/svg" xmlns:xlink="http://www.w3.org/1999/xlink">
<g id="graph0" class="graph" transform="scale(1 1) rotate(0) translate(4 161)">
<title>G</title>
<polygon fill="#ffffff" stroke="transparent" points="-4,4 -4,-161 1057.4193,-161 1057.4193,4 -4,4"/>
<!-- stripe_in -->
<g id="node1" class="node">
<title>stripe_in</title>
<ellipse fill="#c1ffc1" stroke="#000000" cx="34.1021" cy="-72" rx="34.2045" ry="18"/>
<text text-anchor="middle" x="34.1021" y="-67.8" font-family="Times,serif" font-size="14.00" fill="#000000">Stripe</text>
</g>
<!-- deposit_1 -->
<g id="node4" class="node">
<title>deposit_1</title>
<ellipse fill="#bfefff" stroke="#000000" cx="145.2787" cy="-72" rx="41.149" ry="18"/>
<text text-anchor="middle" x="145.2787" y="-67.8" font-family="Times,serif" font-size="14.00" fill="#000000">Deposit</text>
</g>
<!-- stripe_in&#45;&gt;deposit_1 -->
<g id="edge1" class="edge">
<title>stripe_in-&gt;deposit_1</title>
<path fill="none" stroke="#000000" d="M68.3659,-72C76.4368,-72 85.2146,-72 93.8572,-72"/>
<polygon fill="#000000" stroke="#000000" points="93.8905,-75.5001 103.8905,-72 93.8905,-68.5001 93.8905,-75.5001"/>
</g>
<!-- stripe_out_1 -->
<g id="node2" class="node">
<title>stripe_out_1</title>
<ellipse fill="#c1ffc1" stroke="#000000" cx="737.1896" cy="-18" rx="34.2045" ry="18"/>
<text text-anchor="middle" x="737.1896" y="-13.8" font-family="Times,serif" font-size="14.00" fill="#000000">Stripe</text>
</g>
<!-- stripe_out_2 -->
<g id="node3" class="node">
<title>stripe_out_2</title>
<ellipse fill="#c1ffc1" stroke="#000000" cx="1019.3172" cy="-139" rx="34.2045" ry="18"/>
<text text-anchor="middle" x="1019.3172" y="-134.8" font-family="Times,serif" font-size="14.00" fill="#000000">Stripe</text>
</g>
<!-- wallet_1 -->
<g id="node7" class="node">
<title>wallet_1</title>
<ellipse fill="#bfefff" stroke="#000000" cx="263.6892" cy="-72" rx="41.1729" ry="18"/>
<text text-anchor="middle" x="263.6892" y="-67.8" font-family="Times,serif" font-size="14.00" fill="#000000">User #1</text>
</g>
<!-- deposit_1&#45;&gt;wallet_1 -->
<g id="edge4" class="edge">
<title>deposit_1-&gt;wallet_1</title>
<path fill="none" stroke="#000000" d="M186.3606,-72C194.7144,-72 203.6008,-72 212.2614,-72"/>
<polygon fill="#000000" stroke="#000000" points="212.2789,-75.5001 222.2789,-72 212.2788,-68.5001 212.2789,-75.5001"/>
</g>
<!-- withdrawal_1 -->
<g id="node5" class="node">
<title>withdrawal_1</title>
<ellipse fill="#bfefff" stroke="#000000" cx="549.0501" cy="-18" rx="56.7387" ry="18"/>
<text text-anchor="middle" x="549.0501" y="-13.8" font-family="Times,serif" font-size="14.00" fill="#000000">Withdrawal</text>
</g>
<!-- withdrawal_1&#45;&gt;stripe_out_1 -->
<g id="edge2" class="edge">
<title>withdrawal_1-&gt;stripe_out_1</title>
<path fill="none" stroke="#000000" d="M605.7532,-18C633.6158,-18 666.7008,-18 692.7061,-18"/>
<polygon fill="#000000" stroke="#000000" points="693.0197,-21.5001 703.0196,-18 693.0196,-14.5001 693.0197,-21.5001"/>
</g>
<!-- withdrawal_2 -->
<g id="node6" class="node">
<title>withdrawal_2</title>
<ellipse fill="#bfefff" stroke="#000000" cx="892.5959" cy="-139" rx="56.7387" ry="18"/>
<text text-anchor="middle" x="892.5959" y="-134.8" font-family="Times,serif" font-size="14.00" fill="#000000">Withdrawal</text>
</g>
<!-- withdrawal_2&#45;&gt;stripe_out_2 -->
<g id="edge3" class="edge">
<title>withdrawal_2-&gt;stripe_out_2</title>
<path fill="none" stroke="#000000" d="M949.285,-139C957.9033,-139 966.6882,-139 974.9921,-139"/>
<polygon fill="#000000" stroke="#000000" points="975.2046,-142.5001 985.2046,-139 975.2045,-135.5001 975.2046,-142.5001"/>
</g>
<!-- wallet_2 -->
<g id="node8" class="node">
<title>wallet_2</title>
<ellipse fill="#bfefff" stroke="#000000" cx="382.3615" cy="-126" rx="41.1729" ry="18"/>
<text text-anchor="middle" x="382.3615" y="-121.8" font-family="Times,serif" font-size="14.00" fill="#000000">User #2</text>
</g>
<!-- wallet_1&#45;&gt;wallet_2 -->
<g id="edge5" class="edge">
<title>wallet_1-&gt;wallet_2</title>
<path fill="none" stroke="#000000" d="M292.4165,-85.0719C307.8989,-92.1169 327.2101,-100.9042 343.9656,-108.5285"/>
<polygon fill="#000000" stroke="#000000" points="342.9359,-111.9052 353.4875,-112.8613 345.8351,-105.5338 342.9359,-111.9052"/>
</g>
<!-- wallet_3 -->
<g id="node9" class="node">
<title>wallet_3</title>
<ellipse fill="#bfefff" stroke="#000000" cx="382.3615" cy="-18" rx="41.1729" ry="18"/>
<text text-anchor="middle" x="382.3615" y="-13.8" font-family="Times,serif" font-size="14.00" fill="#000000">User #3</text>
</g>
<!-- wallet_1&#45;&gt;wallet_3 -->
<g id="edge6" class="edge">
<title>wallet_1-&gt;wallet_3</title>
<path fill="none" stroke="#000000" d="M292.4165,-58.9281C307.8989,-51.8831 327.2101,-43.0958 343.9656,-35.4715"/>
<polygon fill="#000000" stroke="#000000" points="345.8351,-38.4662 353.4875,-31.1387 342.9359,-32.0948 345.8351,-38.4662"/>
</g>
<!-- pot_1 -->
<g id="node12" class="node">
<title>pot_1</title>
<ellipse fill="#bfefff" stroke="#000000" cx="549.0501" cy="-99" rx="89.205" ry="18"/>
<text text-anchor="middle" x="549.0501" y="-94.8" font-family="Times,serif" font-size="14.00" fill="#000000">Money Pool (Kittie)</text>
</g>
<!-- wallet_2&#45;&gt;pot_1 -->
<g id="edge8" class="edge">
<title>wallet_2-&gt;pot_1</title>
<path fill="none" stroke="#000000" d="M421.4426,-119.6697C435.7067,-117.3592 452.4076,-114.654 468.9387,-111.9763"/>
<polygon fill="#000000" stroke="#000000" points="469.8747,-115.3704 479.1864,-110.3164 468.7554,-108.4605 469.8747,-115.3704"/>
</g>
<!-- wallet_3&#45;&gt;withdrawal_1 -->
<g id="edge7" class="edge">
<title>wallet_3-&gt;withdrawal_1</title>
<path fill="none" stroke="#000000" d="M423.9941,-18C441.5669,-18 462.473,-18 482.1134,-18"/>
<polygon fill="#000000" stroke="#000000" points="482.2443,-21.5001 492.2443,-18 482.2443,-14.5001 482.2443,-21.5001"/>
</g>
<!-- wallet_4 -->
<g id="node10" class="node">
<title>wallet_4</title>
<ellipse fill="#bfefff" stroke="#000000" cx="382.3615" cy="-72" rx="41.1729" ry="18"/>
<text text-anchor="middle" x="382.3615" y="-67.8" font-family="Times,serif" font-size="14.00" fill="#000000">User #4</text>
</g>
<!-- wallet_4&#45;&gt;pot_1 -->
<g id="edge9" class="edge">
<title>wallet_4-&gt;pot_1</title>
<path fill="none" stroke="#000000" d="M421.4426,-78.3303C435.7067,-80.6408 452.4076,-83.346 468.9387,-86.0237"/>
<polygon fill="#000000" stroke="#000000" points="468.7554,-89.5395 479.1864,-87.6836 469.8747,-82.6296 468.7554,-89.5395"/>
</g>
<!-- wallet_5 -->
<g id="node11" class="node">
<title>wallet_5</title>
<ellipse fill="#bfefff" stroke="#000000" cx="737.1896" cy="-139" rx="41.1729" ry="18"/>
<text text-anchor="middle" x="737.1896" y="-134.8" font-family="Times,serif" font-size="14.00" fill="#000000">User #5</text>
</g>
<!-- wallet_5&#45;&gt;withdrawal_2 -->
<g id="edge11" class="edge">
<title>wallet_5-&gt;withdrawal_2</title>
<path fill="none" stroke="#000000" d="M778.8356,-139C793.2175,-139 809.7169,-139 825.6068,-139"/>
<polygon fill="#000000" stroke="#000000" points="825.9325,-142.5001 835.9324,-139 825.9324,-135.5001 825.9325,-142.5001"/>
</g>
<!-- pot_1&#45;&gt;wallet_5 -->
<g id="edge10" class="edge">
<title>pot_1-&gt;wallet_5</title>
<path fill="none" stroke="#000000" d="M610.654,-112.0975C636.441,-117.58 665.9379,-123.8513 689.9621,-128.9591"/>
<polygon fill="#000000" stroke="#000000" points="689.387,-132.4149 699.8963,-131.0711 690.8428,-125.568 689.387,-132.4149"/>
</g>
<!-- fees -->
<g id="node13" class="node">
<title>fees</title>
<ellipse fill="#bfefff" stroke="#000000" cx="737.1896" cy="-85" rx="62.5749" ry="18"/>
<text text-anchor="middle" x="737.1896" y="-80.8" font-family="Times,serif" font-size="14.00" fill="#000000">Platform fees</text>
</g>
<!-- pot_1&#45;&gt;fees -->
<g id="edge12" class="edge">
<title>pot_1-&gt;fees</title>
<path fill="none" stroke="#000000" d="M632.9405,-92.7575C644.0049,-91.9341 655.2593,-91.0967 666.0819,-90.2913"/>
<polygon fill="#000000" stroke="#000000" points="666.5928,-93.7631 676.3055,-89.5306 666.0733,-86.7824 666.5928,-93.7631"/>
</g>
</g>
</svg>